# Blender v3.1.2 OBJ File: 'scifishipassets.blend'
# www.blender.org
mtllib lturn.mtl
o Cube.004_Cube.007
v 1.000000 1.000000 2.000000
v 1.000000 -1.000000 2.000000
v -1.000000 1.000000 2.000000
v -1.000000 -1.000000 2.000000
v -1.680352 0.000000 2.000000
v 1.680352 0.000000 2.000000
v -2.000000 1.000000 1.000000
v -2.000000 -1.000000 1.000000
v -2.000000 1.000000 -1.000000
v -2.000000 -1.000000 -1.000000
v -2.000000 0.000000 -1.680352
v -2.000000 0.000000 1.680352
v 1.000000 1.000000 0.996226
v 1.680352 0.000000 1.665955
v 1.000000 -1.000000 -1.011397
v 1.680352 0.000000 -1.681126
v 1.013575 1.000000 -1.000000
v 1.013575 -1.000000 1.000000
v -1.004607 -1.000000 -1.000000
v -1.004607 1.000000 1.000000
v -1.685665 0.000000 1.680352
v -1.004607 1.000000 -1.000000
v -1.004607 -1.000000 1.000000
v -1.685666 0.000000 -1.680352
vt 0.000000 0.374528
vt 0.250000 0.500000
vt 0.250000 0.374528
vt 0.874528 0.250000
vt 1.000000 0.000000
vt 0.873548 0.000000
vt 0.125472 0.847656
vt -0.000000 1.000000
vt 0.125472 1.000000
vt -0.000000 0.699219
vt 0.125472 0.699219
vt 0.000000 0.375576
vt 0.250000 0.500000
vt 0.250000 0.375576
vt 1.000000 0.250000
vt 0.874604 0.000000
vt 0.875576 0.250000
vt 0.124424 0.847656
vt -0.000000 1.000000
vt 0.124424 1.000000
vt -0.000000 0.699219
vt 0.124424 0.699219
vt 0.500000 0.699219
vt 0.374528 0.847656
vt 0.500000 0.847656
vt 0.376425 0.847656
vt 0.376425 0.699219
vt 0.376425 1.000000
vt 0.620634 0.000000
vt 0.623575 0.250000
vt 0.500000 1.000000
vt 0.250000 0.123575
vt 0.000000 0.123575
vt 0.123303 0.699219
vt 0.375576 0.847656
vt 0.375576 0.699219
vt 0.123303 0.847656
vt 0.375576 1.000000
vt 0.500000 1.000000
vt 0.500000 0.847656
vt 0.500000 0.699219
vt -0.000000 0.500000
vt 1.000000 0.250000
vt -0.000000 0.847656
vt -0.000000 0.500000
vt 1.000000 0.000000
vt -0.000000 0.847656
vt 0.374528 0.699219
vt 0.374528 1.000000
vt 0.123303 1.000000
vn 0.0000 -1.0000 -0.0000
vn 0.0000 1.0000 0.0000
vn -0.8268 -0.5625 0.0000
vn -0.8285 0.5599 -0.0112
vn -0.0000 -0.5625 -0.8268
vn -0.0000 0.5625 -0.8268
vn 0.8267 0.5625 -0.0137
vn -0.8250 0.5650 0.0056
vn -0.8320 -0.5548 0.0000
vn 0.8267 -0.5625 -0.0137
vn 0.0047 0.5647 0.8253
vn 0.0002 -0.5626 0.8267
vn 0.0000 -0.5625 0.8268
vn 0.0000 0.5625 0.8268
vn -0.8268 0.5625 0.0000
vn 0.8253 0.5647 -0.0038
vn -0.8320 0.5548 0.0000
vn -0.8250 -0.5651 -0.0056
vn 0.8253 -0.5647 -0.0038
vn 0.0002 0.5564 0.8309
vn 0.0000 -0.5629 0.8265
usemtl Material
s off
f 13/1/1 3/2/1 20/3/1
f 23/4/2 2/5/2 18/6/2
f 14/7/3 1/8/3 13/9/3
f 2/10/4 14/7/4 18/11/4
f 20/12/1 9/13/1 22/14/1
f 10/15/2 23/16/2 19/17/2
f 21/18/5 7/19/5 20/20/5
f 8/21/6 21/18/6 23/22/6
f 4/23/7 21/24/7 5/25/7
f 18/11/8 16/26/8 15/27/8
f 14/7/9 17/28/9 16/26/9
f 23/4/2 15/29/2 19/30/2
f 21/24/10 3/31/10 5/25/10
f 13/1/1 22/32/1 17/33/1
f 15/34/11 24/35/11 19/36/11
f 16/37/12 22/38/12 24/35/12
f 24/35/13 9/39/13 11/40/13
f 10/41/14 24/35/14 11/40/14
f 13/1/1 1/42/1 3/2/1
f 23/4/2 4/43/2 2/5/2
f 14/7/3 6/44/3 1/8/3
f 2/10/15 6/44/15 14/7/15
f 20/12/1 7/45/1 9/13/1
f 10/15/2 8/46/2 23/16/2
f 21/18/5 12/47/5 7/19/5
f 8/21/6 12/47/6 21/18/6
f 4/23/16 23/48/16 21/24/16
f 18/11/17 14/7/17 16/26/17
f 14/7/18 13/9/18 17/28/18
f 23/4/2 18/6/2 15/29/2
f 21/24/19 20/49/19 3/31/19
f 13/1/1 20/3/1 22/32/1
f 15/34/20 16/37/20 24/35/20
f 16/37/21 17/50/21 22/38/21
f 24/35/13 22/38/13 9/39/13
f 10/41/14 19/36/14 24/35/14
