# Blender v3.1.2 OBJ File: 'scifishipassets.blend'
# www.blender.org
mtllib room.mtl
o Cube.002_Cube.003
v -1.000000 1.000000 3.000000
v -1.000000 -1.000000 3.000000
v 1.680352 0.000000 3.000000
v -1.680352 0.000000 3.000000
v 3.000000 -1.000000 -4.500000
v 3.000000 0.000000 -5.180352
v 3.000000 0.000000 -1.819648
v -3.000000 -1.000000 3.000000
v 3.000000 -1.000000 3.000000
v -3.000000 -1.000000 -6.000000
v 3.000000 -1.000000 -6.000000
v -3.000000 1.400000 -6.000000
v -3.000000 1.400000 3.000000
v 3.000000 1.400000 3.000000
v 3.000000 1.400000 -6.000000
v 1.002551 -1.000000 3.000000
v 0.980794 -1.000000 -6.000000
v 0.980794 1.400000 3.000000
v 0.980794 1.400000 -6.000000
v -0.997370 -1.000000 -6.000000
v -0.997370 1.400000 -6.000000
v -0.997370 1.400000 3.000000
v 3.000000 1.004700 3.000000
v -3.000000 1.004700 3.000000
v 3.000000 1.004700 -6.000000
v -3.000000 1.004700 -6.000000
v 0.980794 1.004700 -6.000000
v 1.002551 1.004700 3.000000
v -0.997370 1.004700 -6.000000
v -3.000000 -1.000000 -2.512378
v 3.000000 -1.000000 -2.490962
v -3.000000 1.400000 -2.512378
v 3.000000 1.400000 -2.512378
v 0.980794 1.400000 -2.512378
v 0.980794 -1.000000 -2.512378
v -0.997370 -1.000000 -2.512378
v -0.997370 1.400000 -2.512378
v -3.000000 1.004700 -2.512378
v 3.000000 1.004700 -2.490962
v 3.000000 1.400000 -4.506810
v 0.980794 1.400000 -4.506810
v -0.997370 1.400000 -4.506810
v -3.000000 1.004700 -4.506810
v -3.000000 -1.000000 -4.506810
v -3.000000 1.400000 -4.506810
v 0.980794 -1.000000 -4.506810
v -0.997370 -1.000000 -4.506810
v 3.000000 1.004700 -4.505960
v -3.000000 0.002350 3.000000
v -3.000000 0.002350 -6.000000
v 3.000000 0.002350 3.000000
v 3.000000 0.002350 -6.000000
v 0.980794 0.002350 -6.000000
v -0.997370 0.002350 -6.000000
v -3.000000 0.002350 -2.512378
v -3.000000 0.002350 -4.506810
vt 0.390625 0.453125
vt 0.500000 0.500000
vt 0.390625 0.496094
vt 0.390625 0.996094
vt 0.500000 0.953125
vt 0.390625 0.953125
vt 0.957031 0.476562
vt 1.000000 0.687500
vt 0.957031 0.687500
vt 1.000000 0.843750
vt 0.957031 1.000000
vt 0.957031 0.843750
vt 1.000000 0.425781
vt 0.957031 1.000000
vt 0.957031 0.425781
vt 1.000000 0.476562
vt 0.957031 0.687500
vt 0.957031 0.476562
vt 1.000000 0.062500
vt 0.957031 0.269531
vt 0.957031 0.062500
vt 0.957031 0.269531
vt 1.000000 0.476562
vt 0.113281 0.996094
vt 0.113281 0.953125
vt 0.113281 0.496094
vt 0.113281 0.453125
vt 0.000000 0.500000
vt 0.000000 0.453125
vt 0.000000 1.000000
vt 0.000000 0.953125
vt 1.000000 0.062500
vt 0.957031 0.062500
vt 1.000000 0.269531
vt 0.855469 0.476562
vt 0.855469 0.269531
vt 0.855469 0.199219
vt 0.855469 0.062500
vt 0.855469 0.062500
vt 0.855469 0.687500
vt 0.855469 1.000000
vt 0.855469 0.425781
vt 0.855469 0.914062
vt 0.855469 1.000000
vt 0.855469 0.546875
vt 0.855469 0.687500
vt 0.957031 0.062500
vt 0.855469 0.566406
vt 0.855469 0.062500
vt 0.957031 0.218750
vt 0.855469 0.218750
vt 0.000000 0.765625
vt 0.113281 0.500000
vt 0.000000 0.500000
vt 0.113281 -0.000000
vt 0.000000 0.265625
vt 0.000000 -0.000000
vt 0.390625 0.265625
vt 0.113281 0.265625
vt 0.113281 0.765625
vt 0.390625 0.500000
vt 1.000000 0.218750
vt 1.000000 0.062500
vt 0.957031 0.636719
vt 0.390625 0.765625
vt 0.500000 0.500000
vt 0.390625 -0.000000
vt 0.500000 0.265625
vt 1.000000 0.062500
vt 0.957031 0.062500
vt 0.855469 0.062500
vt 1.000000 0.636719
vt 0.500000 0.765625
vt 0.500000 0.453125
vt 0.750000 0.218750
vt 0.750000 0.062500
vt 0.750000 0.425781
vt 0.750000 0.062500
vt 0.750000 0.632812
vt 0.750000 0.687500
vt 0.750000 0.476562
vt 0.750000 1.000000
vt 0.750000 0.843750
vt 0.750000 1.000000
vt 0.750000 0.687500
vt 0.750000 0.476562
vt 0.750000 0.269531
vt 0.750000 0.062500
vt 0.750000 0.062500
vt 0.750000 0.269531
vt 0.500000 1.000000
vt 1.000000 1.000000
vt 1.000000 1.000000
vt 1.000000 0.687500
vt 1.000000 0.269531
vt 0.500000 -0.000000
vn 0.0000 1.0000 0.0000
vn 0.0000 -1.0000 0.0000
vn 0.0000 0.0000 -1.0000
vn -1.0000 0.0000 0.0000
vn 1.0000 0.0000 0.0000
vn 0.0000 0.0000 1.0000
usemtl Material
s off
f 46/1/1 11/2/1 17/3/1
f 19/4/2 40/5/2 41/6/2
f 28/7/3 14/8/3 23/9/3
f 40/10/4 25/11/4 48/12/4
f 32/13/5 24/14/5 38/15/5
f 21/16/6 26/17/6 29/18/6
f 15/19/6 27/20/6 25/21/6
f 1/22/3 18/23/3 28/7/3
f 21/24/2 41/6/2 42/25/2
f 46/1/1 20/26/1 47/27/1
f 47/27/1 10/28/1 44/29/1
f 12/30/2 42/25/2 45/31/2
f 13/32/3 1/22/3 24/33/3
f 19/34/6 29/18/6 27/20/6
f 27/20/6 54/35/6 53/36/6
f 24/33/3 4/37/3 49/38/3
f 25/21/6 53/36/6 52/39/6
f 29/18/6 50/40/6 54/35/6
f 38/15/5 49/41/5 55/42/5
f 6/43/4 25/11/4 52/44/4
f 3/45/3 23/9/3 51/46/3
f 23/47/4 7/48/4 51/49/4
f 43/50/5 55/42/5 56/51/5
f 32/52/2 22/53/2 13/54/2
f 2/55/1 30/56/1 8/57/1
f 2/55/1 35/58/1 36/59/1
f 37/60/2 18/61/2 22/53/2
f 45/62/5 38/15/5 43/50/5
f 14/63/4 39/64/4 23/47/4
f 34/65/2 14/66/2 18/61/2
f 16/67/1 31/68/1 35/58/1
f 12/69/5 43/50/5 26/70/5
f 26/70/5 56/51/5 50/71/5
f 45/31/2 37/60/2 32/52/2
f 36/59/1 44/29/1 30/56/1
f 35/58/1 47/27/1 36/59/1
f 42/25/2 34/65/2 37/60/2
f 33/72/4 48/12/4 39/64/4
f 41/6/2 33/73/2 34/65/2
f 35/58/1 5/74/1 46/1/1
f 50/71/5 44/75/5 10/76/5
f 56/51/5 30/77/5 44/75/5
f 9/78/4 7/48/4 31/79/4
f 3/45/3 9/80/3 16/81/3
f 6/43/4 11/82/4 5/83/4
f 55/42/5 8/84/5 30/77/5
f 54/35/6 10/85/6 20/86/6
f 52/39/6 17/87/6 11/88/6
f 8/89/3 4/37/3 2/90/3
f 53/36/6 20/86/6 17/87/6
f 46/1/1 5/74/1 11/2/1
f 19/4/2 15/91/2 40/5/2
f 28/7/3 18/23/3 14/8/3
f 40/10/4 15/92/4 25/11/4
f 32/13/5 13/93/5 24/14/5
f 21/16/6 12/94/6 26/17/6
f 15/19/6 19/34/6 27/20/6
f 1/22/3 22/95/3 18/23/3
f 21/24/2 19/4/2 41/6/2
f 46/1/1 17/3/1 20/26/1
f 47/27/1 20/26/1 10/28/1
f 12/30/2 21/24/2 42/25/2
f 13/32/3 22/95/3 1/22/3
f 19/34/6 21/16/6 29/18/6
f 27/20/6 29/18/6 54/35/6
f 24/33/3 1/22/3 4/37/3
f 25/21/6 27/20/6 53/36/6
f 29/18/6 26/17/6 50/40/6
f 38/15/5 24/14/5 49/41/5
f 6/43/4 48/12/4 25/11/4
f 3/45/3 28/7/3 23/9/3
f 23/47/4 39/64/4 7/48/4
f 43/50/5 38/15/5 55/42/5
f 32/52/2 37/60/2 22/53/2
f 2/55/1 36/59/1 30/56/1
f 2/55/1 16/67/1 35/58/1
f 37/60/2 34/65/2 18/61/2
f 45/62/5 32/13/5 38/15/5
f 14/63/4 33/72/4 39/64/4
f 34/65/2 33/73/2 14/66/2
f 16/67/1 9/96/1 31/68/1
f 12/69/5 45/62/5 43/50/5
f 26/70/5 43/50/5 56/51/5
f 45/31/2 42/25/2 37/60/2
f 36/59/1 47/27/1 44/29/1
f 35/58/1 46/1/1 47/27/1
f 42/25/2 41/6/2 34/65/2
f 33/72/4 40/10/4 48/12/4
f 41/6/2 40/5/2 33/73/2
f 35/58/1 31/68/1 5/74/1
f 50/71/5 56/51/5 44/75/5
f 56/51/5 55/42/5 30/77/5
f 9/78/4 51/49/4 7/48/4
f 3/45/3 51/46/3 9/80/3
f 6/43/4 52/44/4 11/82/4
f 55/42/5 49/41/5 8/84/5
f 54/35/6 50/40/6 10/85/6
f 52/39/6 53/36/6 17/87/6
f 8/89/3 49/38/3 4/37/3
f 53/36/6 54/35/6 20/86/6
