# Blender v3.1.2 OBJ File: 'scifishipassets.blend'
# www.blender.org
mtllib stairs.mtl
o Cube.003_Cube.006
v 1.000000 1.000000 -2.000000
v 1.000000 -1.000000 -2.000000
v 1.000000 1.000000 2.000000
v 1.000000 -1.000000 2.000000
v -1.000000 1.000000 -2.000000
v -1.000000 -1.000000 -2.000000
v -1.000000 1.000000 2.000000
v -1.000000 -1.000000 2.000000
v 1.680352 0.000000 -2.000000
v -1.680352 0.000000 2.000000
v 1.680352 0.000000 2.000000
v -1.680352 0.000000 -2.000000
v 1.000000 1.000000 -6.000000
v 1.000000 -1.000000 -6.000000
v 1.000000 1.000000 -2.000000
v 1.000000 -1.000000 -2.000000
v -1.000000 1.000000 -6.000000
v -1.000000 -1.000000 -6.000000
v -1.000000 1.000000 -2.000000
v -1.000000 -1.000000 -2.000000
v 1.680352 0.000000 -6.000000
v -1.680352 0.000000 -2.000000
v 1.680352 0.000000 -2.000000
v -1.680352 0.000000 -6.000000
v 1.000000 1.000000 -10.000000
v 1.000000 -1.000000 -10.000000
v 1.000000 1.000000 -6.000000
v 1.000000 -1.000000 -6.000000
v -1.000000 1.000000 -10.000000
v -1.000000 -1.000000 -10.000000
v -1.000000 1.000000 -6.000000
v -1.000000 -1.000000 -6.000000
v 1.680352 0.000000 -10.000000
v -1.680352 0.000000 -6.000000
v 1.680352 0.000000 -6.000000
v -1.680352 0.000000 -10.000000
v 1.000000 -1.000000 -2.000000
v 1.000000 -3.000000 -2.000000
v 1.000000 -1.000000 2.000000
v 1.000000 -3.000000 2.000000
v -1.000000 -1.000000 -2.000000
v -1.000000 -3.000000 -2.000000
v -1.000000 -1.000000 2.000000
v -1.000000 -3.000000 2.000000
v 1.680352 -2.000000 -2.000000
v -1.680352 -2.000000 2.000000
v 1.680352 -2.000000 2.000000
v -1.680352 -2.000000 -2.000000
v 1.000000 -1.000000 -6.000000
v 1.000000 -3.000000 -6.000000
v 1.000000 -1.000000 -2.000000
v 1.000000 -3.000000 -2.000000
v -1.000000 -1.000000 -6.000000
v -1.000000 -3.000000 -6.000000
v -1.000000 -1.000000 -2.000000
v -1.000000 -3.000000 -2.000000
v 1.680352 -2.000000 -6.000000
v -1.680352 -2.000000 -2.000000
v 1.680352 -2.000000 -2.000000
v -1.680352 -2.000000 -6.000000
v 1.000000 -1.000000 -10.000000
v 1.000000 -3.000000 -10.000000
v 1.000000 -1.000000 -6.000000
v 1.000000 -3.000000 -6.000000
v -1.000000 -1.000000 -10.000000
v -1.000000 -3.000000 -10.000000
v -1.000000 -1.000000 -6.000000
v -1.000000 -3.000000 -6.000000
v 1.680352 -2.000000 -10.000000
v -1.680352 -2.000000 -6.000000
v 1.680352 -2.000000 -6.000000
v -1.680352 -2.000000 -10.000000
v 1.000000 -2.000000 -6.000000
v -1.000000 -2.000000 -6.000000
vt -0.000000 0.500000
vt 0.250000 0.000000
vt -0.000000 0.000000
vt -0.000000 0.847656
vt 0.500000 1.000000
vt 0.500000 0.847656
vt 1.000000 0.250000
vt 0.496094 0.000000
vt 0.496094 0.250000
vt -0.000000 0.847656
vt 0.500000 1.000000
vt 0.500000 0.847656
vt -0.000000 0.699219
vt 0.500000 0.699219
vt -0.000000 0.699219
vt 0.500000 0.699219
vt -0.000000 0.500000
vt 0.250000 0.000000
vt -0.000000 0.000000
vt -0.000000 0.847656
vt 0.500000 1.000000
vt 0.500000 0.847656
vt 0.601562 0.699219
vt 0.500000 0.847656
vt 0.601562 1.000000
vt -0.000000 0.847656
vt 0.500000 1.000000
vt 0.500000 0.847656
vt -0.000000 0.699219
vt 0.500000 0.699219
vt -0.000000 0.699219
vt 0.500000 0.699219
vt -0.000000 0.500000
vt 0.250000 0.000000
vt -0.000000 0.000000
vt -0.000000 0.847656
vt 0.500000 1.000000
vt 0.500000 0.847656
vt 0.496094 0.500000
vt 1.000000 0.250000
vt 0.496094 0.250000
vt -0.000000 0.847656
vt 0.500000 1.000000
vt 0.500000 0.847656
vt -0.000000 0.699219
vt 0.500000 0.699219
vt -0.000000 0.699219
vt 0.500000 0.699219
vt -0.000000 0.500000
vt 0.250000 0.000000
vt -0.000000 0.000000
vt -0.000000 0.847656
vt 0.500000 1.000000
vt 0.500000 0.847656
vt 1.000000 0.250000
vt 0.496094 0.000000
vt 0.496094 0.250000
vt -0.000000 0.847656
vt 0.500000 1.000000
vt 0.500000 0.847656
vt -0.000000 0.699219
vt 0.500000 0.699219
vt -0.000000 0.699219
vt 0.500000 0.699219
vt 0.898438 0.699219
vt 0.601562 0.699219
vt 0.601562 1.000000
vt -0.000000 0.847656
vt 0.500000 1.000000
vt 0.500000 0.847656
vt 1.000000 0.250000
vt 0.496094 0.000000
vt 0.496094 0.250000
vt -0.000000 0.847656
vt 0.500000 1.000000
vt 0.500000 0.847656
vt -0.000000 0.699219
vt 0.500000 0.699219
vt -0.000000 0.699219
vt 0.500000 0.699219
vt 1.000000 0.500000
vt 1.000000 0.250000
vt -0.000000 0.847656
vt 0.500000 1.000000
vt 0.500000 0.847656
vt 1.000000 0.250000
vt 0.496094 0.000000
vt 0.496094 0.250000
vt -0.000000 0.847656
vt 0.500000 1.000000
vt 0.500000 0.847656
vt -0.000000 0.699219
vt 0.500000 0.699219
vt -0.000000 0.699219
vt 0.500000 0.699219
vt 0.250000 0.500000
vt -0.000000 1.000000
vt 1.000000 -0.000000
vt -0.000000 1.000000
vt 0.250000 0.500000
vt -0.000000 1.000000
vt 0.898438 1.000000
vt 1.000000 0.847656
vt 0.898438 0.699219
vt -0.000000 1.000000
vt 0.250000 0.500000
vt -0.000000 1.000000
vt 1.000000 0.500000
vt -0.000000 1.000000
vt 0.250000 0.500000
vt -0.000000 1.000000
vt 1.000000 -0.000000
vt -0.000000 1.000000
vt 0.898438 1.000000
vt 1.000000 0.847656
vt -0.000000 1.000000
vt 1.000000 -0.000000
vt -0.000000 1.000000
vt -0.000000 1.000000
vt 1.000000 -0.000000
vt -0.000000 1.000000
vn 0.0000 -1.0000 0.0000
vn 0.8268 -0.5625 0.0000
vn 0.0000 1.0000 0.0000
vn -0.8268 -0.5625 0.0000
vn -0.8268 0.5625 0.0000
vn 0.8268 0.5625 0.0000
vn 0.0000 0.0000 1.0000
vn 0.0000 0.9701 -0.2425
vn 0.0000 0.0000 -1.0000
usemtl Material
s off
f 3/1/1 5/2/1 1/3/1
f 12/4/2 7/5/2 10/6/2
f 8/7/3 2/8/3 6/9/3
f 11/10/4 1/11/4 9/12/4
f 4/13/5 9/12/5 2/14/5
f 6/15/6 10/6/6 8/16/6
f 15/17/1 17/18/1 13/19/1
f 24/20/2 19/21/2 22/22/2
f 29/23/7 36/24/7 30/25/7
f 23/26/4 13/27/4 21/28/4
f 16/29/5 21/28/5 14/30/5
f 18/31/6 22/22/6 20/32/6
f 27/33/1 29/34/1 25/35/1
f 36/36/2 31/37/2 34/38/2
f 74/39/8 37/40/8 73/41/8
f 35/42/4 25/43/4 33/44/4
f 28/45/5 33/44/5 26/46/5
f 30/47/6 34/38/6 32/48/6
f 39/49/1 41/50/1 37/51/1
f 48/52/2 43/53/2 46/54/2
f 44/55/3 38/56/3 42/57/3
f 47/58/4 37/59/4 45/60/4
f 40/61/5 45/60/5 38/62/5
f 42/63/6 46/54/6 44/64/6
f 40/65/9 44/66/9 43/67/9
f 60/68/2 55/69/2 58/70/2
f 56/71/3 50/72/3 54/73/3
f 59/74/4 49/75/4 57/76/4
f 52/77/5 57/76/5 50/78/5
f 54/79/6 58/70/6 56/80/6
f 66/81/8 73/41/8 62/82/8
f 72/83/2 67/84/2 70/85/2
f 68/86/3 62/87/3 66/88/3
f 71/89/4 61/90/4 69/91/4
f 64/92/5 69/91/5 62/93/5
f 66/94/6 70/85/6 68/95/6
f 3/1/1 7/96/1 5/2/1
f 12/4/2 5/97/2 7/5/2
f 8/7/3 4/98/3 2/8/3
f 11/10/4 3/99/4 1/11/4
f 4/13/5 11/10/5 9/12/5
f 6/15/6 12/4/6 10/6/6
f 15/17/1 19/100/1 17/18/1
f 24/20/2 17/101/2 19/21/2
f 30/25/7 26/102/7 29/23/7
f 26/102/7 33/103/7 25/104/7
f 29/23/7 26/102/7 25/104/7
f 23/26/4 15/105/4 13/27/4
f 16/29/5 23/26/5 21/28/5
f 18/31/6 24/20/6 22/22/6
f 27/33/1 31/106/1 29/34/1
f 36/36/2 29/107/2 31/37/2
f 74/39/8 41/108/8 37/40/8
f 35/42/4 27/109/4 25/43/4
f 28/45/5 35/42/5 33/44/5
f 30/47/6 36/36/6 34/38/6
f 39/49/1 43/110/1 41/50/1
f 48/52/2 41/111/2 43/53/2
f 44/55/3 40/112/3 38/56/3
f 47/58/4 39/113/4 37/59/4
f 40/61/5 47/58/5 45/60/5
f 42/63/6 48/52/6 46/54/6
f 46/54/9 43/67/9 44/66/9
f 43/67/9 39/114/9 40/65/9
f 39/114/9 47/115/9 40/65/9
f 60/68/2 53/116/2 55/69/2
f 56/71/3 52/117/3 50/72/3
f 59/74/4 51/118/4 49/75/4
f 52/77/5 59/74/5 57/76/5
f 54/79/6 60/68/6 58/70/6
f 66/81/8 74/39/8 73/41/8
f 72/83/2 65/119/2 67/84/2
f 68/86/3 64/120/3 62/87/3
f 71/89/4 63/121/4 61/90/4
f 64/92/5 71/89/5 69/91/5
f 66/94/6 72/83/6 70/85/6
